<mxGraphModel dx="1216" dy="627" grid="1" gridSize="10" guides="1" tooltips="1" connect="1" arrows="1" fold="1" page="1" pageScale="1" pageWidth="850" pageHeight="1100" math="0" shadow="0">
  <root>
    <mxCell id="0" />
    <mxCell id="1" parent="0" />
    <mxCell id="baDXVqSwFS8Pu7y57l61-1" value="Trips&lt;br&gt;(protobuf)" style="rounded=0;whiteSpace=wrap;html=1;" parent="1" vertex="1">
      <mxGeometry x="60" y="260" width="60" height="50" as="geometry" />
    </mxCell>
    <mxCell id="baDXVqSwFS8Pu7y57l61-29" style="edgeStyle=orthogonalEdgeStyle;rounded=0;orthogonalLoop=1;jettySize=auto;html=1;exitX=1;exitY=0.5;exitDx=0;exitDy=0;" parent="1" source="baDXVqSwFS8Pu7y57l61-2" target="baDXVqSwFS8Pu7y57l61-28" edge="1">
      <mxGeometry relative="1" as="geometry" />
    </mxCell>
    <mxCell id="baDXVqSwFS8Pu7y57l61-2" value="TripEntitiesExploded" style="rounded=0;whiteSpace=wrap;html=1;" parent="1" vertex="1">
      <mxGeometry x="160" y="260" width="130" height="50" as="geometry" />
    </mxCell>
    <mxCell id="baDXVqSwFS8Pu7y57l61-4" value="" style="endArrow=classic;html=1;rounded=0;exitX=1;exitY=0.5;exitDx=0;exitDy=0;entryX=0;entryY=0.5;entryDx=0;entryDy=0;" parent="1" source="baDXVqSwFS8Pu7y57l61-1" target="baDXVqSwFS8Pu7y57l61-2" edge="1">
      <mxGeometry width="50" height="50" relative="1" as="geometry">
        <mxPoint x="140" y="360" as="sourcePoint" />
        <mxPoint x="190" y="310" as="targetPoint" />
      </mxGeometry>
    </mxCell>
    <mxCell id="baDXVqSwFS8Pu7y57l61-8" style="edgeStyle=orthogonalEdgeStyle;rounded=0;orthogonalLoop=1;jettySize=auto;html=1;exitX=1;exitY=0.5;exitDx=0;exitDy=0;entryX=0;entryY=0.5;entryDx=0;entryDy=0;" parent="1" source="baDXVqSwFS8Pu7y57l61-6" target="baDXVqSwFS8Pu7y57l61-7" edge="1">
      <mxGeometry relative="1" as="geometry" />
    </mxCell>
    <mxCell id="baDXVqSwFS8Pu7y57l61-6" value="Vehicles&lt;br&gt;(protobuf)" style="rounded=0;whiteSpace=wrap;html=1;" parent="1" vertex="1">
      <mxGeometry x="60" y="340" width="60" height="50" as="geometry" />
    </mxCell>
    <mxCell id="LzUDiZAY9osjAmqgIy-V-4" style="edgeStyle=orthogonalEdgeStyle;rounded=0;orthogonalLoop=1;jettySize=auto;html=1;exitX=0.5;exitY=1;exitDx=0;exitDy=0;entryX=0.5;entryY=0;entryDx=0;entryDy=0;" parent="1" source="baDXVqSwFS8Pu7y57l61-7" target="LzUDiZAY9osjAmqgIy-V-1" edge="1">
      <mxGeometry relative="1" as="geometry" />
    </mxCell>
    <mxCell id="baDXVqSwFS8Pu7y57l61-7" value="VehicleEntitiesExploded" style="rounded=0;whiteSpace=wrap;html=1;fillColor=#dae8fc;strokeColor=#6c8ebf;" parent="1" vertex="1">
      <mxGeometry x="160" y="340" width="150" height="50" as="geometry" />
    </mxCell>
    <mxCell id="baDXVqSwFS8Pu7y57l61-9" value="StopsTable&lt;br&gt;(json)" style="rounded=0;whiteSpace=wrap;html=1;fillColor=#f8cecc;strokeColor=#b85450;" parent="1" vertex="1">
      <mxGeometry x="560" y="265" width="70" height="40" as="geometry" />
    </mxCell>
    <mxCell id="baDXVqSwFS8Pu7y57l61-15" value="CalendarTable&lt;br&gt;(json)" style="rounded=0;whiteSpace=wrap;html=1;fillColor=#f8cecc;strokeColor=#b85450;" parent="1" vertex="1">
      <mxGeometry x="400" y="190" width="100" height="50" as="geometry" />
    </mxCell>
    <mxCell id="baDXVqSwFS8Pu7y57l61-18" value="RoutePathsTable&lt;br&gt;(json)" style="rounded=0;whiteSpace=wrap;html=1;fillColor=#f8cecc;strokeColor=#b85450;" parent="1" vertex="1">
      <mxGeometry x="545" y="130" width="100" height="50" as="geometry" />
    </mxCell>
    <mxCell id="baDXVqSwFS8Pu7y57l61-22" style="edgeStyle=orthogonalEdgeStyle;rounded=0;orthogonalLoop=1;jettySize=auto;html=1;exitX=1;exitY=0.5;exitDx=0;exitDy=0;" parent="1" source="baDXVqSwFS8Pu7y57l61-20" target="baDXVqSwFS8Pu7y57l61-21" edge="1">
      <mxGeometry relative="1" as="geometry" />
    </mxCell>
    <mxCell id="baDXVqSwFS8Pu7y57l61-20" value="Alerts&lt;br&gt;(protobuf)" style="rounded=0;whiteSpace=wrap;html=1;" parent="1" vertex="1">
      <mxGeometry x="60" y="500" width="100" height="50" as="geometry" />
    </mxCell>
    <mxCell id="baDXVqSwFS8Pu7y57l61-21" value="AlertEntitiesExploded" style="rounded=0;whiteSpace=wrap;html=1;fillColor=#dae8fc;strokeColor=#6c8ebf;" parent="1" vertex="1">
      <mxGeometry x="250" y="500" width="140" height="50" as="geometry" />
    </mxCell>
    <mxCell id="baDXVqSwFS8Pu7y57l61-25" style="edgeStyle=orthogonalEdgeStyle;rounded=0;orthogonalLoop=1;jettySize=auto;html=1;exitX=1;exitY=0.5;exitDx=0;exitDy=0;entryX=0;entryY=0.5;entryDx=0;entryDy=0;" parent="1" source="baDXVqSwFS8Pu7y57l61-23" target="baDXVqSwFS8Pu7y57l61-24" edge="1">
      <mxGeometry relative="1" as="geometry" />
    </mxCell>
    <mxCell id="baDXVqSwFS8Pu7y57l61-23" value="VehiclesAlt (json schema)" style="rounded=0;whiteSpace=wrap;html=1;" parent="1" vertex="1">
      <mxGeometry x="60" y="200" width="70" height="50" as="geometry" />
    </mxCell>
    <mxCell id="baDXVqSwFS8Pu7y57l61-24" value="VehiclesAltExploded" style="rounded=0;whiteSpace=wrap;html=1;fillColor=#dae8fc;strokeColor=#6c8ebf;" parent="1" vertex="1">
      <mxGeometry x="210" y="200" width="130" height="50" as="geometry" />
    </mxCell>
    <mxCell id="baDXVqSwFS8Pu7y57l61-26" value="TripsTable&lt;br&gt;(json)" style="rounded=0;whiteSpace=wrap;html=1;fillColor=#f8cecc;strokeColor=#b85450;" parent="1" vertex="1">
      <mxGeometry x="400" y="140" width="80" height="30" as="geometry" />
    </mxCell>
    <mxCell id="baDXVqSwFS8Pu7y57l61-27" value="CalendarDatesTable&lt;br&gt;(json)" style="rounded=0;whiteSpace=wrap;html=1;fillColor=#f8cecc;strokeColor=#b85450;" parent="1" vertex="1">
      <mxGeometry x="535" y="200" width="120" height="30" as="geometry" />
    </mxCell>
    <mxCell id="baDXVqSwFS8Pu7y57l61-28" value="TripEntitiesExplodedStopsExploded" style="rounded=0;whiteSpace=wrap;html=1;fillColor=#dae8fc;strokeColor=#6c8ebf;" parent="1" vertex="1">
      <mxGeometry x="310" y="260" width="200" height="50" as="geometry" />
    </mxCell>
    <mxCell id="baDXVqSwFS8Pu7y57l61-38" style="edgeStyle=orthogonalEdgeStyle;rounded=0;orthogonalLoop=1;jettySize=auto;html=1;exitX=1;exitY=0.5;exitDx=0;exitDy=0;entryX=0;entryY=0.5;entryDx=0;entryDy=0;" parent="1" source="baDXVqSwFS8Pu7y57l61-36" target="baDXVqSwFS8Pu7y57l61-37" edge="1">
      <mxGeometry relative="1" as="geometry" />
    </mxCell>
    <mxCell id="baDXVqSwFS8Pu7y57l61-36" value="AlertsAlt (json schema)" style="rounded=0;whiteSpace=wrap;html=1;" parent="1" vertex="1">
      <mxGeometry x="60" y="130" width="70" height="50" as="geometry" />
    </mxCell>
    <mxCell id="baDXVqSwFS8Pu7y57l61-37" value="AlertsAltExploded" style="rounded=0;whiteSpace=wrap;html=1;fillColor=#dae8fc;strokeColor=#6c8ebf;" parent="1" vertex="1">
      <mxGeometry x="190" y="130" width="120" height="50" as="geometry" />
    </mxCell>
    <mxCell id="baDXVqSwFS8Pu7y57l61-40" value="routeConfig&lt;br&gt;(json schema)" style="rounded=0;whiteSpace=wrap;html=1;" parent="1" vertex="1">
      <mxGeometry x="450" y="490" width="120" height="60" as="geometry" />
    </mxCell>
    <mxCell id="LzUDiZAY9osjAmqgIy-V-1" value="VehiclesLatest[Table]" style="rounded=0;whiteSpace=wrap;html=1;fillColor=#f8cecc;strokeColor=#b85450;" parent="1" vertex="1">
      <mxGeometry x="175" y="440" width="120" height="30" as="geometry" />
    </mxCell>
    <mxCell id="tBkoroNSvGsC5wa6oeFv-3" value="" style="rounded=1;whiteSpace=wrap;html=1;labelBorderColor=none;strokeWidth=1;dashed=1;dashPattern=8 8;" parent="1" vertex="1">
      <mxGeometry x="635" y="460" width="120" height="90" as="geometry" />
    </mxCell>
    <mxCell id="tBkoroNSvGsC5wa6oeFv-4" value="Realtime Data" style="rounded=0;whiteSpace=wrap;html=1;fillColor=#f8cecc;strokeColor=#b85450;" parent="1" vertex="1">
      <mxGeometry x="655" y="510" width="80" height="20" as="geometry" />
    </mxCell>
    <mxCell id="tBkoroNSvGsC5wa6oeFv-2" value="Batch Data" style="rounded=0;whiteSpace=wrap;html=1;fillColor=#dae8fc;strokeColor=#6c8ebf;align=center;" parent="1" vertex="1">
      <mxGeometry x="660" y="470" width="70" height="20" as="geometry" />
    </mxCell>
  </root>
</mxGraphModel>